<mxfile host="Electron" modified="2023-07-26T13:08:15.623Z" agent="Mozilla/5.0 (Windows NT 10.0; Win64; x64) AppleWebKit/537.36 (KHTML, like Gecko) draw.io/21.6.5 Chrome/114.0.5735.243 Electron/25.3.1 Safari/537.36" etag="3249rpdNjeUpv_w21OX1" version="21.6.5" type="device">
  <diagram name="Página-1" id="3F6kA5a75E4QOf9IQiFz">
    <mxGraphModel dx="2046" dy="719" grid="1" gridSize="10" guides="1" tooltips="1" connect="1" arrows="1" fold="1" page="1" pageScale="1" pageWidth="827" pageHeight="1169" math="0" shadow="0">
      <root>
        <mxCell id="0" />
        <mxCell id="1" parent="0" />
        <mxCell id="-7buCA6G2Mpe8uncxtU2-1" value="Construa a modelagem que represente pessoas e seus dados, observando que:&#xa;&#xa;&#xa;- uma pessoa pode ter vários telefones e vários emails, porém, pode possuir somente uma CNH.&#xa;&#xa;&#xa;DQL&#xa;&#xa;&#xa;- listar as pessoas em ordem alfabética reversa, mostrando seus telefones, seus e-mails e suas CNHs" style="text;whiteSpace=wrap;" parent="1" vertex="1">
          <mxGeometry x="134" y="40" width="560" height="180" as="geometry" />
        </mxCell>
        <mxCell id="-7buCA6G2Mpe8uncxtU2-8" value="" style="edgeStyle=orthogonalEdgeStyle;rounded=0;orthogonalLoop=1;jettySize=auto;html=1;endArrow=none;endFill=0;" parent="1" source="-7buCA6G2Mpe8uncxtU2-2" target="-7buCA6G2Mpe8uncxtU2-7" edge="1">
          <mxGeometry relative="1" as="geometry" />
        </mxCell>
        <mxCell id="-7buCA6G2Mpe8uncxtU2-2" value="Pessoa" style="rounded=0;whiteSpace=wrap;html=1;" parent="1" vertex="1">
          <mxGeometry x="350" y="270" width="120" height="60" as="geometry" />
        </mxCell>
        <mxCell id="-7buCA6G2Mpe8uncxtU2-4" value="" style="edgeStyle=orthogonalEdgeStyle;rounded=0;orthogonalLoop=1;jettySize=auto;html=1;endArrow=none;endFill=0;" parent="1" source="-7buCA6G2Mpe8uncxtU2-3" target="-7buCA6G2Mpe8uncxtU2-2" edge="1">
          <mxGeometry relative="1" as="geometry" />
        </mxCell>
        <mxCell id="-7buCA6G2Mpe8uncxtU2-9" value="" style="edgeStyle=orthogonalEdgeStyle;rounded=0;orthogonalLoop=1;jettySize=auto;html=1;endArrow=none;endFill=0;" parent="1" source="-7buCA6G2Mpe8uncxtU2-3" target="-7buCA6G2Mpe8uncxtU2-5" edge="1">
          <mxGeometry relative="1" as="geometry" />
        </mxCell>
        <mxCell id="-7buCA6G2Mpe8uncxtU2-3" value="Possui" style="rhombus;whiteSpace=wrap;html=1;" parent="1" vertex="1">
          <mxGeometry x="370" y="390" width="80" height="80" as="geometry" />
        </mxCell>
        <mxCell id="-7buCA6G2Mpe8uncxtU2-5" value="Telefone" style="rounded=0;whiteSpace=wrap;html=1;" parent="1" vertex="1">
          <mxGeometry x="350" y="530" width="120" height="60" as="geometry" />
        </mxCell>
        <mxCell id="-7buCA6G2Mpe8uncxtU2-6" value="Email" style="rounded=0;whiteSpace=wrap;html=1;" parent="1" vertex="1">
          <mxGeometry x="160" y="530" width="120" height="60" as="geometry" />
        </mxCell>
        <mxCell id="-7buCA6G2Mpe8uncxtU2-7" value="CNH" style="ellipse;whiteSpace=wrap;html=1;" parent="1" vertex="1">
          <mxGeometry x="560" y="280" width="90" height="40" as="geometry" />
        </mxCell>
        <mxCell id="-7buCA6G2Mpe8uncxtU2-12" value="" style="edgeStyle=orthogonalEdgeStyle;rounded=0;orthogonalLoop=1;jettySize=auto;html=1;endArrow=none;endFill=0;entryX=0;entryY=0.5;entryDx=0;entryDy=0;" parent="1" source="-7buCA6G2Mpe8uncxtU2-13" target="-7buCA6G2Mpe8uncxtU2-2" edge="1">
          <mxGeometry relative="1" as="geometry">
            <mxPoint x="220" y="290" as="targetPoint" />
            <Array as="points">
              <mxPoint x="220" y="300" />
            </Array>
          </mxGeometry>
        </mxCell>
        <mxCell id="-7buCA6G2Mpe8uncxtU2-13" value="Possui" style="rhombus;whiteSpace=wrap;html=1;" parent="1" vertex="1">
          <mxGeometry x="180" y="390" width="80" height="80" as="geometry" />
        </mxCell>
        <mxCell id="-7buCA6G2Mpe8uncxtU2-14" value="" style="edgeStyle=orthogonalEdgeStyle;rounded=0;orthogonalLoop=1;jettySize=auto;html=1;endArrow=none;endFill=0;" parent="1" source="-7buCA6G2Mpe8uncxtU2-13" edge="1">
          <mxGeometry relative="1" as="geometry">
            <mxPoint x="220" y="530" as="targetPoint" />
          </mxGeometry>
        </mxCell>
        <mxCell id="-7buCA6G2Mpe8uncxtU2-15" value="1" style="text;html=1;strokeColor=none;fillColor=none;align=center;verticalAlign=middle;whiteSpace=wrap;rounded=0;" parent="1" vertex="1">
          <mxGeometry x="300" y="300" width="60" height="30" as="geometry" />
        </mxCell>
        <mxCell id="-7buCA6G2Mpe8uncxtU2-16" value="N" style="text;html=1;strokeColor=none;fillColor=none;align=center;verticalAlign=middle;whiteSpace=wrap;rounded=0;" parent="1" vertex="1">
          <mxGeometry x="410" y="500" width="60" height="30" as="geometry" />
        </mxCell>
        <mxCell id="-7buCA6G2Mpe8uncxtU2-17" value="N" style="text;html=1;strokeColor=none;fillColor=none;align=center;verticalAlign=middle;whiteSpace=wrap;rounded=0;" parent="1" vertex="1">
          <mxGeometry x="220" y="500" width="60" height="30" as="geometry" />
        </mxCell>
        <mxCell id="W0HZDRy9L3F1lpWs8rV1-1" value="1" style="text;html=1;strokeColor=none;fillColor=none;align=center;verticalAlign=middle;whiteSpace=wrap;rounded=0;" parent="1" vertex="1">
          <mxGeometry x="400" y="330" width="60" height="30" as="geometry" />
        </mxCell>
        <mxCell id="8-zWfNiMNheqiNsRZylx-41" value="Conceitual" style="rounded=0;whiteSpace=wrap;html=1;fillColor=#f8cecc;strokeColor=#b85450;" vertex="1" parent="1">
          <mxGeometry x="530" y="370" width="80" height="40" as="geometry" />
        </mxCell>
        <mxCell id="8-zWfNiMNheqiNsRZylx-42" value="Lógico" style="rounded=0;whiteSpace=wrap;html=1;fillColor=#f8cecc;strokeColor=#b85450;" vertex="1" parent="1">
          <mxGeometry x="630" y="650" width="80" height="40" as="geometry" />
        </mxCell>
        <mxCell id="8-zWfNiMNheqiNsRZylx-60" value="Pessoa" style="shape=table;startSize=30;container=1;collapsible=1;childLayout=tableLayout;fixedRows=1;rowLines=0;fontStyle=1;align=center;resizeLast=1;html=1;" vertex="1" parent="1">
          <mxGeometry x="80" y="840" width="180" height="90" as="geometry" />
        </mxCell>
        <mxCell id="8-zWfNiMNheqiNsRZylx-61" value="" style="shape=tableRow;horizontal=0;startSize=0;swimlaneHead=0;swimlaneBody=0;fillColor=none;collapsible=0;dropTarget=0;points=[[0,0.5],[1,0.5]];portConstraint=eastwest;top=0;left=0;right=0;bottom=1;" vertex="1" parent="8-zWfNiMNheqiNsRZylx-60">
          <mxGeometry y="30" width="180" height="30" as="geometry" />
        </mxCell>
        <mxCell id="8-zWfNiMNheqiNsRZylx-62" value="PK" style="shape=partialRectangle;connectable=0;fillColor=none;top=0;left=0;bottom=0;right=0;fontStyle=1;overflow=hidden;whiteSpace=wrap;html=1;" vertex="1" parent="8-zWfNiMNheqiNsRZylx-61">
          <mxGeometry width="30" height="30" as="geometry">
            <mxRectangle width="30" height="30" as="alternateBounds" />
          </mxGeometry>
        </mxCell>
        <mxCell id="8-zWfNiMNheqiNsRZylx-63" value="IdPessoa" style="shape=partialRectangle;connectable=0;fillColor=none;top=0;left=0;bottom=0;right=0;align=left;spacingLeft=6;fontStyle=5;overflow=hidden;whiteSpace=wrap;html=1;" vertex="1" parent="8-zWfNiMNheqiNsRZylx-61">
          <mxGeometry x="30" width="150" height="30" as="geometry">
            <mxRectangle width="150" height="30" as="alternateBounds" />
          </mxGeometry>
        </mxCell>
        <mxCell id="8-zWfNiMNheqiNsRZylx-64" value="" style="shape=tableRow;horizontal=0;startSize=0;swimlaneHead=0;swimlaneBody=0;fillColor=none;collapsible=0;dropTarget=0;points=[[0,0.5],[1,0.5]];portConstraint=eastwest;top=0;left=0;right=0;bottom=0;" vertex="1" parent="8-zWfNiMNheqiNsRZylx-60">
          <mxGeometry y="60" width="180" height="30" as="geometry" />
        </mxCell>
        <mxCell id="8-zWfNiMNheqiNsRZylx-65" value="" style="shape=partialRectangle;connectable=0;fillColor=none;top=0;left=0;bottom=0;right=0;editable=1;overflow=hidden;whiteSpace=wrap;html=1;" vertex="1" parent="8-zWfNiMNheqiNsRZylx-64">
          <mxGeometry width="30" height="30" as="geometry">
            <mxRectangle width="30" height="30" as="alternateBounds" />
          </mxGeometry>
        </mxCell>
        <mxCell id="8-zWfNiMNheqiNsRZylx-66" value="NomePessoa" style="shape=partialRectangle;connectable=0;fillColor=none;top=0;left=0;bottom=0;right=0;align=left;spacingLeft=6;overflow=hidden;whiteSpace=wrap;html=1;" vertex="1" parent="8-zWfNiMNheqiNsRZylx-64">
          <mxGeometry x="30" width="150" height="30" as="geometry">
            <mxRectangle width="150" height="30" as="alternateBounds" />
          </mxGeometry>
        </mxCell>
        <mxCell id="8-zWfNiMNheqiNsRZylx-86" value="CNH" style="shape=table;startSize=30;container=1;collapsible=1;childLayout=tableLayout;fixedRows=1;rowLines=0;fontStyle=1;align=center;resizeLast=1;html=1;whiteSpace=wrap;" vertex="1" parent="1">
          <mxGeometry x="414" y="650" width="180" height="120" as="geometry" />
        </mxCell>
        <mxCell id="8-zWfNiMNheqiNsRZylx-87" value="" style="shape=tableRow;horizontal=0;startSize=0;swimlaneHead=0;swimlaneBody=0;fillColor=none;collapsible=0;dropTarget=0;points=[[0,0.5],[1,0.5]];portConstraint=eastwest;top=0;left=0;right=0;bottom=0;html=1;" vertex="1" parent="8-zWfNiMNheqiNsRZylx-86">
          <mxGeometry y="30" width="180" height="30" as="geometry" />
        </mxCell>
        <mxCell id="8-zWfNiMNheqiNsRZylx-88" value="PK" style="shape=partialRectangle;connectable=0;fillColor=none;top=0;left=0;bottom=0;right=0;fontStyle=1;overflow=hidden;html=1;whiteSpace=wrap;" vertex="1" parent="8-zWfNiMNheqiNsRZylx-87">
          <mxGeometry width="60" height="30" as="geometry">
            <mxRectangle width="60" height="30" as="alternateBounds" />
          </mxGeometry>
        </mxCell>
        <mxCell id="8-zWfNiMNheqiNsRZylx-89" value="IdCnh" style="shape=partialRectangle;connectable=0;fillColor=none;top=0;left=0;bottom=0;right=0;align=left;spacingLeft=6;fontStyle=5;overflow=hidden;html=1;whiteSpace=wrap;" vertex="1" parent="8-zWfNiMNheqiNsRZylx-87">
          <mxGeometry x="60" width="120" height="30" as="geometry">
            <mxRectangle width="120" height="30" as="alternateBounds" />
          </mxGeometry>
        </mxCell>
        <mxCell id="8-zWfNiMNheqiNsRZylx-90" value="" style="shape=tableRow;horizontal=0;startSize=0;swimlaneHead=0;swimlaneBody=0;fillColor=none;collapsible=0;dropTarget=0;points=[[0,0.5],[1,0.5]];portConstraint=eastwest;top=0;left=0;right=0;bottom=1;html=1;" vertex="1" parent="8-zWfNiMNheqiNsRZylx-86">
          <mxGeometry y="60" width="180" height="30" as="geometry" />
        </mxCell>
        <mxCell id="8-zWfNiMNheqiNsRZylx-91" value="FK" style="shape=partialRectangle;connectable=0;fillColor=none;top=0;left=0;bottom=0;right=0;fontStyle=1;overflow=hidden;html=1;whiteSpace=wrap;" vertex="1" parent="8-zWfNiMNheqiNsRZylx-90">
          <mxGeometry width="60" height="30" as="geometry">
            <mxRectangle width="60" height="30" as="alternateBounds" />
          </mxGeometry>
        </mxCell>
        <mxCell id="8-zWfNiMNheqiNsRZylx-92" value="IdPessoa" style="shape=partialRectangle;connectable=0;fillColor=none;top=0;left=0;bottom=0;right=0;align=left;spacingLeft=6;fontStyle=5;overflow=hidden;html=1;whiteSpace=wrap;" vertex="1" parent="8-zWfNiMNheqiNsRZylx-90">
          <mxGeometry x="60" width="120" height="30" as="geometry">
            <mxRectangle width="120" height="30" as="alternateBounds" />
          </mxGeometry>
        </mxCell>
        <mxCell id="8-zWfNiMNheqiNsRZylx-93" value="" style="shape=tableRow;horizontal=0;startSize=0;swimlaneHead=0;swimlaneBody=0;fillColor=none;collapsible=0;dropTarget=0;points=[[0,0.5],[1,0.5]];portConstraint=eastwest;top=0;left=0;right=0;bottom=0;html=1;" vertex="1" parent="8-zWfNiMNheqiNsRZylx-86">
          <mxGeometry y="90" width="180" height="30" as="geometry" />
        </mxCell>
        <mxCell id="8-zWfNiMNheqiNsRZylx-94" value="" style="shape=partialRectangle;connectable=0;fillColor=none;top=0;left=0;bottom=0;right=0;editable=1;overflow=hidden;html=1;whiteSpace=wrap;" vertex="1" parent="8-zWfNiMNheqiNsRZylx-93">
          <mxGeometry width="60" height="30" as="geometry">
            <mxRectangle width="60" height="30" as="alternateBounds" />
          </mxGeometry>
        </mxCell>
        <mxCell id="8-zWfNiMNheqiNsRZylx-95" value="NumCnh" style="shape=partialRectangle;connectable=0;fillColor=none;top=0;left=0;bottom=0;right=0;align=left;spacingLeft=6;overflow=hidden;html=1;whiteSpace=wrap;" vertex="1" parent="8-zWfNiMNheqiNsRZylx-93">
          <mxGeometry x="60" width="120" height="30" as="geometry">
            <mxRectangle width="120" height="30" as="alternateBounds" />
          </mxGeometry>
        </mxCell>
        <mxCell id="8-zWfNiMNheqiNsRZylx-99" value="EMAIL" style="shape=table;startSize=30;container=1;collapsible=1;childLayout=tableLayout;fixedRows=1;rowLines=0;fontStyle=1;align=center;resizeLast=1;html=1;whiteSpace=wrap;" vertex="1" parent="1">
          <mxGeometry x="414" y="820" width="180" height="120" as="geometry" />
        </mxCell>
        <mxCell id="8-zWfNiMNheqiNsRZylx-100" value="" style="shape=tableRow;horizontal=0;startSize=0;swimlaneHead=0;swimlaneBody=0;fillColor=none;collapsible=0;dropTarget=0;points=[[0,0.5],[1,0.5]];portConstraint=eastwest;top=0;left=0;right=0;bottom=0;html=1;" vertex="1" parent="8-zWfNiMNheqiNsRZylx-99">
          <mxGeometry y="30" width="180" height="30" as="geometry" />
        </mxCell>
        <mxCell id="8-zWfNiMNheqiNsRZylx-101" value="PK" style="shape=partialRectangle;connectable=0;fillColor=none;top=0;left=0;bottom=0;right=0;fontStyle=1;overflow=hidden;html=1;whiteSpace=wrap;" vertex="1" parent="8-zWfNiMNheqiNsRZylx-100">
          <mxGeometry width="60" height="30" as="geometry">
            <mxRectangle width="60" height="30" as="alternateBounds" />
          </mxGeometry>
        </mxCell>
        <mxCell id="8-zWfNiMNheqiNsRZylx-102" value="IdEmail" style="shape=partialRectangle;connectable=0;fillColor=none;top=0;left=0;bottom=0;right=0;align=left;spacingLeft=6;fontStyle=5;overflow=hidden;html=1;whiteSpace=wrap;" vertex="1" parent="8-zWfNiMNheqiNsRZylx-100">
          <mxGeometry x="60" width="120" height="30" as="geometry">
            <mxRectangle width="120" height="30" as="alternateBounds" />
          </mxGeometry>
        </mxCell>
        <mxCell id="8-zWfNiMNheqiNsRZylx-103" value="" style="shape=tableRow;horizontal=0;startSize=0;swimlaneHead=0;swimlaneBody=0;fillColor=none;collapsible=0;dropTarget=0;points=[[0,0.5],[1,0.5]];portConstraint=eastwest;top=0;left=0;right=0;bottom=1;html=1;" vertex="1" parent="8-zWfNiMNheqiNsRZylx-99">
          <mxGeometry y="60" width="180" height="30" as="geometry" />
        </mxCell>
        <mxCell id="8-zWfNiMNheqiNsRZylx-104" value="FK" style="shape=partialRectangle;connectable=0;fillColor=none;top=0;left=0;bottom=0;right=0;fontStyle=1;overflow=hidden;html=1;whiteSpace=wrap;" vertex="1" parent="8-zWfNiMNheqiNsRZylx-103">
          <mxGeometry width="60" height="30" as="geometry">
            <mxRectangle width="60" height="30" as="alternateBounds" />
          </mxGeometry>
        </mxCell>
        <mxCell id="8-zWfNiMNheqiNsRZylx-105" value="IdPessoa" style="shape=partialRectangle;connectable=0;fillColor=none;top=0;left=0;bottom=0;right=0;align=left;spacingLeft=6;fontStyle=5;overflow=hidden;html=1;whiteSpace=wrap;" vertex="1" parent="8-zWfNiMNheqiNsRZylx-103">
          <mxGeometry x="60" width="120" height="30" as="geometry">
            <mxRectangle width="120" height="30" as="alternateBounds" />
          </mxGeometry>
        </mxCell>
        <mxCell id="8-zWfNiMNheqiNsRZylx-106" value="" style="shape=tableRow;horizontal=0;startSize=0;swimlaneHead=0;swimlaneBody=0;fillColor=none;collapsible=0;dropTarget=0;points=[[0,0.5],[1,0.5]];portConstraint=eastwest;top=0;left=0;right=0;bottom=0;html=1;" vertex="1" parent="8-zWfNiMNheqiNsRZylx-99">
          <mxGeometry y="90" width="180" height="30" as="geometry" />
        </mxCell>
        <mxCell id="8-zWfNiMNheqiNsRZylx-107" value="" style="shape=partialRectangle;connectable=0;fillColor=none;top=0;left=0;bottom=0;right=0;editable=1;overflow=hidden;html=1;whiteSpace=wrap;" vertex="1" parent="8-zWfNiMNheqiNsRZylx-106">
          <mxGeometry width="60" height="30" as="geometry">
            <mxRectangle width="60" height="30" as="alternateBounds" />
          </mxGeometry>
        </mxCell>
        <mxCell id="8-zWfNiMNheqiNsRZylx-108" value="EnderecoEmail" style="shape=partialRectangle;connectable=0;fillColor=none;top=0;left=0;bottom=0;right=0;align=left;spacingLeft=6;overflow=hidden;html=1;whiteSpace=wrap;" vertex="1" parent="8-zWfNiMNheqiNsRZylx-106">
          <mxGeometry x="60" width="120" height="30" as="geometry">
            <mxRectangle width="120" height="30" as="alternateBounds" />
          </mxGeometry>
        </mxCell>
        <mxCell id="8-zWfNiMNheqiNsRZylx-112" value="Telefone" style="shape=table;startSize=30;container=1;collapsible=1;childLayout=tableLayout;fixedRows=1;rowLines=0;fontStyle=1;align=center;resizeLast=1;html=1;whiteSpace=wrap;" vertex="1" parent="1">
          <mxGeometry x="414" y="990" width="180" height="120" as="geometry" />
        </mxCell>
        <mxCell id="8-zWfNiMNheqiNsRZylx-113" value="" style="shape=tableRow;horizontal=0;startSize=0;swimlaneHead=0;swimlaneBody=0;fillColor=none;collapsible=0;dropTarget=0;points=[[0,0.5],[1,0.5]];portConstraint=eastwest;top=0;left=0;right=0;bottom=0;html=1;" vertex="1" parent="8-zWfNiMNheqiNsRZylx-112">
          <mxGeometry y="30" width="180" height="30" as="geometry" />
        </mxCell>
        <mxCell id="8-zWfNiMNheqiNsRZylx-114" value="PK" style="shape=partialRectangle;connectable=0;fillColor=none;top=0;left=0;bottom=0;right=0;fontStyle=1;overflow=hidden;html=1;whiteSpace=wrap;" vertex="1" parent="8-zWfNiMNheqiNsRZylx-113">
          <mxGeometry width="60" height="30" as="geometry">
            <mxRectangle width="60" height="30" as="alternateBounds" />
          </mxGeometry>
        </mxCell>
        <mxCell id="8-zWfNiMNheqiNsRZylx-115" value="IdTelefone" style="shape=partialRectangle;connectable=0;fillColor=none;top=0;left=0;bottom=0;right=0;align=left;spacingLeft=6;fontStyle=5;overflow=hidden;html=1;whiteSpace=wrap;" vertex="1" parent="8-zWfNiMNheqiNsRZylx-113">
          <mxGeometry x="60" width="120" height="30" as="geometry">
            <mxRectangle width="120" height="30" as="alternateBounds" />
          </mxGeometry>
        </mxCell>
        <mxCell id="8-zWfNiMNheqiNsRZylx-116" value="" style="shape=tableRow;horizontal=0;startSize=0;swimlaneHead=0;swimlaneBody=0;fillColor=none;collapsible=0;dropTarget=0;points=[[0,0.5],[1,0.5]];portConstraint=eastwest;top=0;left=0;right=0;bottom=1;html=1;" vertex="1" parent="8-zWfNiMNheqiNsRZylx-112">
          <mxGeometry y="60" width="180" height="30" as="geometry" />
        </mxCell>
        <mxCell id="8-zWfNiMNheqiNsRZylx-117" value="FK" style="shape=partialRectangle;connectable=0;fillColor=none;top=0;left=0;bottom=0;right=0;fontStyle=1;overflow=hidden;html=1;whiteSpace=wrap;" vertex="1" parent="8-zWfNiMNheqiNsRZylx-116">
          <mxGeometry width="60" height="30" as="geometry">
            <mxRectangle width="60" height="30" as="alternateBounds" />
          </mxGeometry>
        </mxCell>
        <mxCell id="8-zWfNiMNheqiNsRZylx-118" value="IdPessoa" style="shape=partialRectangle;connectable=0;fillColor=none;top=0;left=0;bottom=0;right=0;align=left;spacingLeft=6;fontStyle=5;overflow=hidden;html=1;whiteSpace=wrap;" vertex="1" parent="8-zWfNiMNheqiNsRZylx-116">
          <mxGeometry x="60" width="120" height="30" as="geometry">
            <mxRectangle width="120" height="30" as="alternateBounds" />
          </mxGeometry>
        </mxCell>
        <mxCell id="8-zWfNiMNheqiNsRZylx-119" value="" style="shape=tableRow;horizontal=0;startSize=0;swimlaneHead=0;swimlaneBody=0;fillColor=none;collapsible=0;dropTarget=0;points=[[0,0.5],[1,0.5]];portConstraint=eastwest;top=0;left=0;right=0;bottom=0;html=1;" vertex="1" parent="8-zWfNiMNheqiNsRZylx-112">
          <mxGeometry y="90" width="180" height="30" as="geometry" />
        </mxCell>
        <mxCell id="8-zWfNiMNheqiNsRZylx-120" value="" style="shape=partialRectangle;connectable=0;fillColor=none;top=0;left=0;bottom=0;right=0;editable=1;overflow=hidden;html=1;whiteSpace=wrap;" vertex="1" parent="8-zWfNiMNheqiNsRZylx-119">
          <mxGeometry width="60" height="30" as="geometry">
            <mxRectangle width="60" height="30" as="alternateBounds" />
          </mxGeometry>
        </mxCell>
        <mxCell id="8-zWfNiMNheqiNsRZylx-121" value="NumTelefone" style="shape=partialRectangle;connectable=0;fillColor=none;top=0;left=0;bottom=0;right=0;align=left;spacingLeft=6;overflow=hidden;html=1;whiteSpace=wrap;" vertex="1" parent="8-zWfNiMNheqiNsRZylx-119">
          <mxGeometry x="60" width="120" height="30" as="geometry">
            <mxRectangle width="120" height="30" as="alternateBounds" />
          </mxGeometry>
        </mxCell>
        <mxCell id="8-zWfNiMNheqiNsRZylx-125" value="" style="edgeStyle=entityRelationEdgeStyle;fontSize=12;html=1;endArrow=ERoneToMany;rounded=0;entryX=0;entryY=0.5;entryDx=0;entryDy=0;" edge="1" parent="1" target="8-zWfNiMNheqiNsRZylx-90">
          <mxGeometry width="100" height="100" relative="1" as="geometry">
            <mxPoint x="260" y="875" as="sourcePoint" />
            <mxPoint x="414" y="710" as="targetPoint" />
          </mxGeometry>
        </mxCell>
        <mxCell id="8-zWfNiMNheqiNsRZylx-126" value="" style="edgeStyle=entityRelationEdgeStyle;fontSize=12;html=1;endArrow=ERoneToMany;rounded=0;entryX=0;entryY=0.5;entryDx=0;entryDy=0;exitX=1;exitY=0.5;exitDx=0;exitDy=0;" edge="1" parent="1" source="8-zWfNiMNheqiNsRZylx-61" target="8-zWfNiMNheqiNsRZylx-103">
          <mxGeometry width="100" height="100" relative="1" as="geometry">
            <mxPoint x="260" y="895" as="sourcePoint" />
            <mxPoint x="400" y="840" as="targetPoint" />
          </mxGeometry>
        </mxCell>
        <mxCell id="8-zWfNiMNheqiNsRZylx-127" value="" style="edgeStyle=entityRelationEdgeStyle;fontSize=12;html=1;endArrow=ERoneToMany;rounded=0;entryX=0;entryY=0.5;entryDx=0;entryDy=0;exitX=0.996;exitY=0.773;exitDx=0;exitDy=0;exitPerimeter=0;" edge="1" parent="1" source="8-zWfNiMNheqiNsRZylx-61" target="8-zWfNiMNheqiNsRZylx-116">
          <mxGeometry width="100" height="100" relative="1" as="geometry">
            <mxPoint x="260" y="885" as="sourcePoint" />
            <mxPoint x="380" y="940" as="targetPoint" />
          </mxGeometry>
        </mxCell>
        <mxCell id="8-zWfNiMNheqiNsRZylx-128" value="Pessoa" style="shape=table;startSize=30;container=1;collapsible=0;childLayout=tableLayout;strokeColor=default;fontSize=16;" vertex="1" parent="1">
          <mxGeometry x="350" y="1169" width="434" height="136" as="geometry" />
        </mxCell>
        <mxCell id="8-zWfNiMNheqiNsRZylx-129" value="" style="shape=tableRow;horizontal=0;startSize=0;swimlaneHead=0;swimlaneBody=0;strokeColor=inherit;top=0;left=0;bottom=0;right=0;collapsible=0;dropTarget=0;fillColor=none;points=[[0,0.5],[1,0.5]];portConstraint=eastwest;fontSize=16;" vertex="1" parent="8-zWfNiMNheqiNsRZylx-128">
          <mxGeometry y="30" width="434" height="26" as="geometry" />
        </mxCell>
        <mxCell id="8-zWfNiMNheqiNsRZylx-130" value="IdPessoa&lt;span style=&quot;white-space: pre;&quot;&gt;&#x9;&lt;/span&gt;" style="shape=partialRectangle;html=1;whiteSpace=wrap;connectable=0;strokeColor=inherit;overflow=hidden;fillColor=none;top=0;left=0;bottom=0;right=0;pointerEvents=1;fontSize=16;" vertex="1" parent="8-zWfNiMNheqiNsRZylx-129">
          <mxGeometry width="87" height="26" as="geometry">
            <mxRectangle width="87" height="26" as="alternateBounds" />
          </mxGeometry>
        </mxCell>
        <mxCell id="8-zWfNiMNheqiNsRZylx-131" value="IdTelefone" style="shape=partialRectangle;html=1;whiteSpace=wrap;connectable=0;strokeColor=inherit;overflow=hidden;fillColor=none;top=0;left=0;bottom=0;right=0;pointerEvents=1;fontSize=16;" vertex="1" parent="8-zWfNiMNheqiNsRZylx-129">
          <mxGeometry x="87" width="86" height="26" as="geometry">
            <mxRectangle width="86" height="26" as="alternateBounds" />
          </mxGeometry>
        </mxCell>
        <mxCell id="8-zWfNiMNheqiNsRZylx-132" value="IdEmail" style="shape=partialRectangle;html=1;whiteSpace=wrap;connectable=0;strokeColor=inherit;overflow=hidden;fillColor=none;top=0;left=0;bottom=0;right=0;pointerEvents=1;fontSize=16;" vertex="1" parent="8-zWfNiMNheqiNsRZylx-129">
          <mxGeometry x="173" width="87" height="26" as="geometry">
            <mxRectangle width="87" height="26" as="alternateBounds" />
          </mxGeometry>
        </mxCell>
        <mxCell id="8-zWfNiMNheqiNsRZylx-146" value="NomePessoa" style="shape=partialRectangle;html=1;whiteSpace=wrap;connectable=0;strokeColor=inherit;overflow=hidden;fillColor=none;top=0;left=0;bottom=0;right=0;pointerEvents=1;fontSize=16;" vertex="1" parent="8-zWfNiMNheqiNsRZylx-129">
          <mxGeometry x="260" width="87" height="26" as="geometry">
            <mxRectangle width="87" height="26" as="alternateBounds" />
          </mxGeometry>
        </mxCell>
        <mxCell id="8-zWfNiMNheqiNsRZylx-150" value="IdCnh" style="shape=partialRectangle;html=1;whiteSpace=wrap;connectable=0;strokeColor=inherit;overflow=hidden;fillColor=none;top=0;left=0;bottom=0;right=0;pointerEvents=1;fontSize=16;" vertex="1" parent="8-zWfNiMNheqiNsRZylx-129">
          <mxGeometry x="347" width="87" height="26" as="geometry">
            <mxRectangle width="87" height="26" as="alternateBounds" />
          </mxGeometry>
        </mxCell>
        <mxCell id="8-zWfNiMNheqiNsRZylx-133" value="" style="shape=tableRow;horizontal=0;startSize=0;swimlaneHead=0;swimlaneBody=0;strokeColor=inherit;top=0;left=0;bottom=0;right=0;collapsible=0;dropTarget=0;fillColor=none;points=[[0,0.5],[1,0.5]];portConstraint=eastwest;fontSize=16;" vertex="1" parent="8-zWfNiMNheqiNsRZylx-128">
          <mxGeometry y="56" width="434" height="28" as="geometry" />
        </mxCell>
        <mxCell id="8-zWfNiMNheqiNsRZylx-134" value="1" style="shape=partialRectangle;html=1;whiteSpace=wrap;connectable=0;strokeColor=inherit;overflow=hidden;fillColor=none;top=0;left=0;bottom=0;right=0;pointerEvents=1;fontSize=16;" vertex="1" parent="8-zWfNiMNheqiNsRZylx-133">
          <mxGeometry width="87" height="28" as="geometry">
            <mxRectangle width="87" height="28" as="alternateBounds" />
          </mxGeometry>
        </mxCell>
        <mxCell id="8-zWfNiMNheqiNsRZylx-135" value="2" style="shape=partialRectangle;html=1;whiteSpace=wrap;connectable=0;strokeColor=inherit;overflow=hidden;fillColor=none;top=0;left=0;bottom=0;right=0;pointerEvents=1;fontSize=16;" vertex="1" parent="8-zWfNiMNheqiNsRZylx-133">
          <mxGeometry x="87" width="86" height="28" as="geometry">
            <mxRectangle width="86" height="28" as="alternateBounds" />
          </mxGeometry>
        </mxCell>
        <mxCell id="8-zWfNiMNheqiNsRZylx-136" value="1" style="shape=partialRectangle;html=1;whiteSpace=wrap;connectable=0;strokeColor=inherit;overflow=hidden;fillColor=none;top=0;left=0;bottom=0;right=0;pointerEvents=1;fontSize=16;" vertex="1" parent="8-zWfNiMNheqiNsRZylx-133">
          <mxGeometry x="173" width="87" height="28" as="geometry">
            <mxRectangle width="87" height="28" as="alternateBounds" />
          </mxGeometry>
        </mxCell>
        <mxCell id="8-zWfNiMNheqiNsRZylx-147" value="joão" style="shape=partialRectangle;html=1;whiteSpace=wrap;connectable=0;strokeColor=inherit;overflow=hidden;fillColor=none;top=0;left=0;bottom=0;right=0;pointerEvents=1;fontSize=16;" vertex="1" parent="8-zWfNiMNheqiNsRZylx-133">
          <mxGeometry x="260" width="87" height="28" as="geometry">
            <mxRectangle width="87" height="28" as="alternateBounds" />
          </mxGeometry>
        </mxCell>
        <mxCell id="8-zWfNiMNheqiNsRZylx-151" value="1" style="shape=partialRectangle;html=1;whiteSpace=wrap;connectable=0;strokeColor=inherit;overflow=hidden;fillColor=none;top=0;left=0;bottom=0;right=0;pointerEvents=1;fontSize=16;" vertex="1" parent="8-zWfNiMNheqiNsRZylx-133">
          <mxGeometry x="347" width="87" height="28" as="geometry">
            <mxRectangle width="87" height="28" as="alternateBounds" />
          </mxGeometry>
        </mxCell>
        <mxCell id="8-zWfNiMNheqiNsRZylx-137" value="" style="shape=tableRow;horizontal=0;startSize=0;swimlaneHead=0;swimlaneBody=0;strokeColor=inherit;top=0;left=0;bottom=0;right=0;collapsible=0;dropTarget=0;fillColor=none;points=[[0,0.5],[1,0.5]];portConstraint=eastwest;fontSize=16;" vertex="1" parent="8-zWfNiMNheqiNsRZylx-128">
          <mxGeometry y="84" width="434" height="26" as="geometry" />
        </mxCell>
        <mxCell id="8-zWfNiMNheqiNsRZylx-138" value="2" style="shape=partialRectangle;html=1;whiteSpace=wrap;connectable=0;strokeColor=inherit;overflow=hidden;fillColor=none;top=0;left=0;bottom=0;right=0;pointerEvents=1;fontSize=16;" vertex="1" parent="8-zWfNiMNheqiNsRZylx-137">
          <mxGeometry width="87" height="26" as="geometry">
            <mxRectangle width="87" height="26" as="alternateBounds" />
          </mxGeometry>
        </mxCell>
        <mxCell id="8-zWfNiMNheqiNsRZylx-139" value="3" style="shape=partialRectangle;html=1;whiteSpace=wrap;connectable=0;strokeColor=inherit;overflow=hidden;fillColor=none;top=0;left=0;bottom=0;right=0;pointerEvents=1;fontSize=16;" vertex="1" parent="8-zWfNiMNheqiNsRZylx-137">
          <mxGeometry x="87" width="86" height="26" as="geometry">
            <mxRectangle width="86" height="26" as="alternateBounds" />
          </mxGeometry>
        </mxCell>
        <mxCell id="8-zWfNiMNheqiNsRZylx-140" value="3" style="shape=partialRectangle;html=1;whiteSpace=wrap;connectable=0;strokeColor=inherit;overflow=hidden;fillColor=none;top=0;left=0;bottom=0;right=0;pointerEvents=1;fontSize=16;" vertex="1" parent="8-zWfNiMNheqiNsRZylx-137">
          <mxGeometry x="173" width="87" height="26" as="geometry">
            <mxRectangle width="87" height="26" as="alternateBounds" />
          </mxGeometry>
        </mxCell>
        <mxCell id="8-zWfNiMNheqiNsRZylx-148" value="marcos" style="shape=partialRectangle;html=1;whiteSpace=wrap;connectable=0;strokeColor=inherit;overflow=hidden;fillColor=none;top=0;left=0;bottom=0;right=0;pointerEvents=1;fontSize=16;" vertex="1" parent="8-zWfNiMNheqiNsRZylx-137">
          <mxGeometry x="260" width="87" height="26" as="geometry">
            <mxRectangle width="87" height="26" as="alternateBounds" />
          </mxGeometry>
        </mxCell>
        <mxCell id="8-zWfNiMNheqiNsRZylx-152" value="3" style="shape=partialRectangle;html=1;whiteSpace=wrap;connectable=0;strokeColor=inherit;overflow=hidden;fillColor=none;top=0;left=0;bottom=0;right=0;pointerEvents=1;fontSize=16;" vertex="1" parent="8-zWfNiMNheqiNsRZylx-137">
          <mxGeometry x="347" width="87" height="26" as="geometry">
            <mxRectangle width="87" height="26" as="alternateBounds" />
          </mxGeometry>
        </mxCell>
        <mxCell id="8-zWfNiMNheqiNsRZylx-141" style="shape=tableRow;horizontal=0;startSize=0;swimlaneHead=0;swimlaneBody=0;strokeColor=inherit;top=0;left=0;bottom=0;right=0;collapsible=0;dropTarget=0;fillColor=none;points=[[0,0.5],[1,0.5]];portConstraint=eastwest;fontSize=16;" vertex="1" parent="8-zWfNiMNheqiNsRZylx-128">
          <mxGeometry y="110" width="434" height="26" as="geometry" />
        </mxCell>
        <mxCell id="8-zWfNiMNheqiNsRZylx-142" value="3" style="shape=partialRectangle;html=1;whiteSpace=wrap;connectable=0;strokeColor=inherit;overflow=hidden;fillColor=none;top=0;left=0;bottom=0;right=0;pointerEvents=1;fontSize=16;" vertex="1" parent="8-zWfNiMNheqiNsRZylx-141">
          <mxGeometry width="87" height="26" as="geometry">
            <mxRectangle width="87" height="26" as="alternateBounds" />
          </mxGeometry>
        </mxCell>
        <mxCell id="8-zWfNiMNheqiNsRZylx-143" value="1" style="shape=partialRectangle;html=1;whiteSpace=wrap;connectable=0;strokeColor=inherit;overflow=hidden;fillColor=none;top=0;left=0;bottom=0;right=0;pointerEvents=1;fontSize=16;" vertex="1" parent="8-zWfNiMNheqiNsRZylx-141">
          <mxGeometry x="87" width="86" height="26" as="geometry">
            <mxRectangle width="86" height="26" as="alternateBounds" />
          </mxGeometry>
        </mxCell>
        <mxCell id="8-zWfNiMNheqiNsRZylx-144" value="2" style="shape=partialRectangle;html=1;whiteSpace=wrap;connectable=0;strokeColor=inherit;overflow=hidden;fillColor=none;top=0;left=0;bottom=0;right=0;pointerEvents=1;fontSize=16;" vertex="1" parent="8-zWfNiMNheqiNsRZylx-141">
          <mxGeometry x="173" width="87" height="26" as="geometry">
            <mxRectangle width="87" height="26" as="alternateBounds" />
          </mxGeometry>
        </mxCell>
        <mxCell id="8-zWfNiMNheqiNsRZylx-149" value="simone" style="shape=partialRectangle;html=1;whiteSpace=wrap;connectable=0;strokeColor=inherit;overflow=hidden;fillColor=none;top=0;left=0;bottom=0;right=0;pointerEvents=1;fontSize=16;" vertex="1" parent="8-zWfNiMNheqiNsRZylx-141">
          <mxGeometry x="260" width="87" height="26" as="geometry">
            <mxRectangle width="87" height="26" as="alternateBounds" />
          </mxGeometry>
        </mxCell>
        <mxCell id="8-zWfNiMNheqiNsRZylx-153" value="2" style="shape=partialRectangle;html=1;whiteSpace=wrap;connectable=0;strokeColor=inherit;overflow=hidden;fillColor=none;top=0;left=0;bottom=0;right=0;pointerEvents=1;fontSize=16;" vertex="1" parent="8-zWfNiMNheqiNsRZylx-141">
          <mxGeometry x="347" width="87" height="26" as="geometry">
            <mxRectangle width="87" height="26" as="alternateBounds" />
          </mxGeometry>
        </mxCell>
        <mxCell id="8-zWfNiMNheqiNsRZylx-154" value="Telefone" style="shape=table;startSize=30;container=1;collapsible=0;childLayout=tableLayout;strokeColor=default;fontSize=16;" vertex="1" parent="1">
          <mxGeometry x="-140" y="1169" width="350" height="190" as="geometry" />
        </mxCell>
        <mxCell id="8-zWfNiMNheqiNsRZylx-155" value="" style="shape=tableRow;horizontal=0;startSize=0;swimlaneHead=0;swimlaneBody=0;strokeColor=inherit;top=0;left=0;bottom=0;right=0;collapsible=0;dropTarget=0;fillColor=none;points=[[0,0.5],[1,0.5]];portConstraint=eastwest;fontSize=16;" vertex="1" parent="8-zWfNiMNheqiNsRZylx-154">
          <mxGeometry y="30" width="350" height="40" as="geometry" />
        </mxCell>
        <mxCell id="8-zWfNiMNheqiNsRZylx-156" value="IdTelefone&lt;span style=&quot;white-space: pre;&quot;&gt;&#x9;&lt;/span&gt;" style="shape=partialRectangle;html=1;whiteSpace=wrap;connectable=0;strokeColor=inherit;overflow=hidden;fillColor=none;top=0;left=0;bottom=0;right=0;pointerEvents=1;fontSize=16;" vertex="1" parent="8-zWfNiMNheqiNsRZylx-155">
          <mxGeometry width="117" height="40" as="geometry">
            <mxRectangle width="117" height="40" as="alternateBounds" />
          </mxGeometry>
        </mxCell>
        <mxCell id="8-zWfNiMNheqiNsRZylx-157" value="IdPessoa" style="shape=partialRectangle;html=1;whiteSpace=wrap;connectable=0;strokeColor=inherit;overflow=hidden;fillColor=none;top=0;left=0;bottom=0;right=0;pointerEvents=1;fontSize=16;" vertex="1" parent="8-zWfNiMNheqiNsRZylx-155">
          <mxGeometry x="117" width="116" height="40" as="geometry">
            <mxRectangle width="116" height="40" as="alternateBounds" />
          </mxGeometry>
        </mxCell>
        <mxCell id="8-zWfNiMNheqiNsRZylx-158" value="numTelefone" style="shape=partialRectangle;html=1;whiteSpace=wrap;connectable=0;strokeColor=inherit;overflow=hidden;fillColor=none;top=0;left=0;bottom=0;right=0;pointerEvents=1;fontSize=16;" vertex="1" parent="8-zWfNiMNheqiNsRZylx-155">
          <mxGeometry x="233" width="117" height="40" as="geometry">
            <mxRectangle width="117" height="40" as="alternateBounds" />
          </mxGeometry>
        </mxCell>
        <mxCell id="8-zWfNiMNheqiNsRZylx-159" value="" style="shape=tableRow;horizontal=0;startSize=0;swimlaneHead=0;swimlaneBody=0;strokeColor=inherit;top=0;left=0;bottom=0;right=0;collapsible=0;dropTarget=0;fillColor=none;points=[[0,0.5],[1,0.5]];portConstraint=eastwest;fontSize=16;" vertex="1" parent="8-zWfNiMNheqiNsRZylx-154">
          <mxGeometry y="70" width="350" height="40" as="geometry" />
        </mxCell>
        <mxCell id="8-zWfNiMNheqiNsRZylx-160" value="1" style="shape=partialRectangle;html=1;whiteSpace=wrap;connectable=0;strokeColor=inherit;overflow=hidden;fillColor=none;top=0;left=0;bottom=0;right=0;pointerEvents=1;fontSize=16;" vertex="1" parent="8-zWfNiMNheqiNsRZylx-159">
          <mxGeometry width="117" height="40" as="geometry">
            <mxRectangle width="117" height="40" as="alternateBounds" />
          </mxGeometry>
        </mxCell>
        <mxCell id="8-zWfNiMNheqiNsRZylx-161" value="3" style="shape=partialRectangle;html=1;whiteSpace=wrap;connectable=0;strokeColor=inherit;overflow=hidden;fillColor=none;top=0;left=0;bottom=0;right=0;pointerEvents=1;fontSize=16;" vertex="1" parent="8-zWfNiMNheqiNsRZylx-159">
          <mxGeometry x="117" width="116" height="40" as="geometry">
            <mxRectangle width="116" height="40" as="alternateBounds" />
          </mxGeometry>
        </mxCell>
        <mxCell id="8-zWfNiMNheqiNsRZylx-162" value="1199999-9999" style="shape=partialRectangle;html=1;whiteSpace=wrap;connectable=0;strokeColor=inherit;overflow=hidden;fillColor=none;top=0;left=0;bottom=0;right=0;pointerEvents=1;fontSize=16;" vertex="1" parent="8-zWfNiMNheqiNsRZylx-159">
          <mxGeometry x="233" width="117" height="40" as="geometry">
            <mxRectangle width="117" height="40" as="alternateBounds" />
          </mxGeometry>
        </mxCell>
        <mxCell id="8-zWfNiMNheqiNsRZylx-163" value="" style="shape=tableRow;horizontal=0;startSize=0;swimlaneHead=0;swimlaneBody=0;strokeColor=inherit;top=0;left=0;bottom=0;right=0;collapsible=0;dropTarget=0;fillColor=none;points=[[0,0.5],[1,0.5]];portConstraint=eastwest;fontSize=16;" vertex="1" parent="8-zWfNiMNheqiNsRZylx-154">
          <mxGeometry y="110" width="350" height="40" as="geometry" />
        </mxCell>
        <mxCell id="8-zWfNiMNheqiNsRZylx-164" value="2" style="shape=partialRectangle;html=1;whiteSpace=wrap;connectable=0;strokeColor=inherit;overflow=hidden;fillColor=none;top=0;left=0;bottom=0;right=0;pointerEvents=1;fontSize=16;" vertex="1" parent="8-zWfNiMNheqiNsRZylx-163">
          <mxGeometry width="117" height="40" as="geometry">
            <mxRectangle width="117" height="40" as="alternateBounds" />
          </mxGeometry>
        </mxCell>
        <mxCell id="8-zWfNiMNheqiNsRZylx-165" value="1" style="shape=partialRectangle;html=1;whiteSpace=wrap;connectable=0;strokeColor=inherit;overflow=hidden;fillColor=none;top=0;left=0;bottom=0;right=0;pointerEvents=1;fontSize=16;" vertex="1" parent="8-zWfNiMNheqiNsRZylx-163">
          <mxGeometry x="117" width="116" height="40" as="geometry">
            <mxRectangle width="116" height="40" as="alternateBounds" />
          </mxGeometry>
        </mxCell>
        <mxCell id="8-zWfNiMNheqiNsRZylx-166" value="1188888-8888" style="shape=partialRectangle;html=1;whiteSpace=wrap;connectable=0;strokeColor=inherit;overflow=hidden;fillColor=none;top=0;left=0;bottom=0;right=0;pointerEvents=1;fontSize=16;" vertex="1" parent="8-zWfNiMNheqiNsRZylx-163">
          <mxGeometry x="233" width="117" height="40" as="geometry">
            <mxRectangle width="117" height="40" as="alternateBounds" />
          </mxGeometry>
        </mxCell>
        <mxCell id="8-zWfNiMNheqiNsRZylx-168" style="shape=tableRow;horizontal=0;startSize=0;swimlaneHead=0;swimlaneBody=0;strokeColor=inherit;top=0;left=0;bottom=0;right=0;collapsible=0;dropTarget=0;fillColor=none;points=[[0,0.5],[1,0.5]];portConstraint=eastwest;fontSize=16;" vertex="1" parent="8-zWfNiMNheqiNsRZylx-154">
          <mxGeometry y="150" width="350" height="40" as="geometry" />
        </mxCell>
        <mxCell id="8-zWfNiMNheqiNsRZylx-169" value="3" style="shape=partialRectangle;html=1;whiteSpace=wrap;connectable=0;strokeColor=inherit;overflow=hidden;fillColor=none;top=0;left=0;bottom=0;right=0;pointerEvents=1;fontSize=16;" vertex="1" parent="8-zWfNiMNheqiNsRZylx-168">
          <mxGeometry width="117" height="40" as="geometry">
            <mxRectangle width="117" height="40" as="alternateBounds" />
          </mxGeometry>
        </mxCell>
        <mxCell id="8-zWfNiMNheqiNsRZylx-170" value="2" style="shape=partialRectangle;html=1;whiteSpace=wrap;connectable=0;strokeColor=inherit;overflow=hidden;fillColor=none;top=0;left=0;bottom=0;right=0;pointerEvents=1;fontSize=16;" vertex="1" parent="8-zWfNiMNheqiNsRZylx-168">
          <mxGeometry x="117" width="116" height="40" as="geometry">
            <mxRectangle width="116" height="40" as="alternateBounds" />
          </mxGeometry>
        </mxCell>
        <mxCell id="8-zWfNiMNheqiNsRZylx-171" value="1377777-77777" style="shape=partialRectangle;html=1;whiteSpace=wrap;connectable=0;strokeColor=inherit;overflow=hidden;fillColor=none;top=0;left=0;bottom=0;right=0;pointerEvents=1;fontSize=16;" vertex="1" parent="8-zWfNiMNheqiNsRZylx-168">
          <mxGeometry x="233" width="117" height="40" as="geometry">
            <mxRectangle width="117" height="40" as="alternateBounds" />
          </mxGeometry>
        </mxCell>
        <mxCell id="8-zWfNiMNheqiNsRZylx-167" value="Físico" style="rounded=0;whiteSpace=wrap;html=1;fillColor=#f8cecc;strokeColor=#b85450;" vertex="1" parent="1">
          <mxGeometry x="230" y="1150" width="80" height="40" as="geometry" />
        </mxCell>
        <mxCell id="8-zWfNiMNheqiNsRZylx-172" value="Email" style="shape=table;startSize=30;container=1;collapsible=0;childLayout=tableLayout;strokeColor=default;fontSize=16;" vertex="1" parent="1">
          <mxGeometry x="-140" y="1390" width="350" height="190" as="geometry" />
        </mxCell>
        <mxCell id="8-zWfNiMNheqiNsRZylx-173" value="" style="shape=tableRow;horizontal=0;startSize=0;swimlaneHead=0;swimlaneBody=0;strokeColor=inherit;top=0;left=0;bottom=0;right=0;collapsible=0;dropTarget=0;fillColor=none;points=[[0,0.5],[1,0.5]];portConstraint=eastwest;fontSize=16;" vertex="1" parent="8-zWfNiMNheqiNsRZylx-172">
          <mxGeometry y="30" width="350" height="40" as="geometry" />
        </mxCell>
        <mxCell id="8-zWfNiMNheqiNsRZylx-174" value="IdEmail" style="shape=partialRectangle;html=1;whiteSpace=wrap;connectable=0;strokeColor=inherit;overflow=hidden;fillColor=none;top=0;left=0;bottom=0;right=0;pointerEvents=1;fontSize=16;" vertex="1" parent="8-zWfNiMNheqiNsRZylx-173">
          <mxGeometry width="117" height="40" as="geometry">
            <mxRectangle width="117" height="40" as="alternateBounds" />
          </mxGeometry>
        </mxCell>
        <mxCell id="8-zWfNiMNheqiNsRZylx-175" value="IdPessoa" style="shape=partialRectangle;html=1;whiteSpace=wrap;connectable=0;strokeColor=inherit;overflow=hidden;fillColor=none;top=0;left=0;bottom=0;right=0;pointerEvents=1;fontSize=16;" vertex="1" parent="8-zWfNiMNheqiNsRZylx-173">
          <mxGeometry x="117" width="116" height="40" as="geometry">
            <mxRectangle width="116" height="40" as="alternateBounds" />
          </mxGeometry>
        </mxCell>
        <mxCell id="8-zWfNiMNheqiNsRZylx-176" value="EndEmail" style="shape=partialRectangle;html=1;whiteSpace=wrap;connectable=0;strokeColor=inherit;overflow=hidden;fillColor=none;top=0;left=0;bottom=0;right=0;pointerEvents=1;fontSize=16;" vertex="1" parent="8-zWfNiMNheqiNsRZylx-173">
          <mxGeometry x="233" width="117" height="40" as="geometry">
            <mxRectangle width="117" height="40" as="alternateBounds" />
          </mxGeometry>
        </mxCell>
        <mxCell id="8-zWfNiMNheqiNsRZylx-177" value="" style="shape=tableRow;horizontal=0;startSize=0;swimlaneHead=0;swimlaneBody=0;strokeColor=inherit;top=0;left=0;bottom=0;right=0;collapsible=0;dropTarget=0;fillColor=none;points=[[0,0.5],[1,0.5]];portConstraint=eastwest;fontSize=16;" vertex="1" parent="8-zWfNiMNheqiNsRZylx-172">
          <mxGeometry y="70" width="350" height="40" as="geometry" />
        </mxCell>
        <mxCell id="8-zWfNiMNheqiNsRZylx-178" value="1" style="shape=partialRectangle;html=1;whiteSpace=wrap;connectable=0;strokeColor=inherit;overflow=hidden;fillColor=none;top=0;left=0;bottom=0;right=0;pointerEvents=1;fontSize=16;" vertex="1" parent="8-zWfNiMNheqiNsRZylx-177">
          <mxGeometry width="117" height="40" as="geometry">
            <mxRectangle width="117" height="40" as="alternateBounds" />
          </mxGeometry>
        </mxCell>
        <mxCell id="8-zWfNiMNheqiNsRZylx-179" value="1" style="shape=partialRectangle;html=1;whiteSpace=wrap;connectable=0;strokeColor=inherit;overflow=hidden;fillColor=none;top=0;left=0;bottom=0;right=0;pointerEvents=1;fontSize=16;" vertex="1" parent="8-zWfNiMNheqiNsRZylx-177">
          <mxGeometry x="117" width="116" height="40" as="geometry">
            <mxRectangle width="116" height="40" as="alternateBounds" />
          </mxGeometry>
        </mxCell>
        <mxCell id="8-zWfNiMNheqiNsRZylx-180" value="Joao@email" style="shape=partialRectangle;html=1;whiteSpace=wrap;connectable=0;strokeColor=inherit;overflow=hidden;fillColor=none;top=0;left=0;bottom=0;right=0;pointerEvents=1;fontSize=16;" vertex="1" parent="8-zWfNiMNheqiNsRZylx-177">
          <mxGeometry x="233" width="117" height="40" as="geometry">
            <mxRectangle width="117" height="40" as="alternateBounds" />
          </mxGeometry>
        </mxCell>
        <mxCell id="8-zWfNiMNheqiNsRZylx-181" value="" style="shape=tableRow;horizontal=0;startSize=0;swimlaneHead=0;swimlaneBody=0;strokeColor=inherit;top=0;left=0;bottom=0;right=0;collapsible=0;dropTarget=0;fillColor=none;points=[[0,0.5],[1,0.5]];portConstraint=eastwest;fontSize=16;" vertex="1" parent="8-zWfNiMNheqiNsRZylx-172">
          <mxGeometry y="110" width="350" height="40" as="geometry" />
        </mxCell>
        <mxCell id="8-zWfNiMNheqiNsRZylx-182" value="2" style="shape=partialRectangle;html=1;whiteSpace=wrap;connectable=0;strokeColor=inherit;overflow=hidden;fillColor=none;top=0;left=0;bottom=0;right=0;pointerEvents=1;fontSize=16;" vertex="1" parent="8-zWfNiMNheqiNsRZylx-181">
          <mxGeometry width="117" height="40" as="geometry">
            <mxRectangle width="117" height="40" as="alternateBounds" />
          </mxGeometry>
        </mxCell>
        <mxCell id="8-zWfNiMNheqiNsRZylx-183" value="3" style="shape=partialRectangle;html=1;whiteSpace=wrap;connectable=0;strokeColor=inherit;overflow=hidden;fillColor=none;top=0;left=0;bottom=0;right=0;pointerEvents=1;fontSize=16;" vertex="1" parent="8-zWfNiMNheqiNsRZylx-181">
          <mxGeometry x="117" width="116" height="40" as="geometry">
            <mxRectangle width="116" height="40" as="alternateBounds" />
          </mxGeometry>
        </mxCell>
        <mxCell id="8-zWfNiMNheqiNsRZylx-184" value="Simone@email" style="shape=partialRectangle;html=1;whiteSpace=wrap;connectable=0;strokeColor=inherit;overflow=hidden;fillColor=none;top=0;left=0;bottom=0;right=0;pointerEvents=1;fontSize=16;" vertex="1" parent="8-zWfNiMNheqiNsRZylx-181">
          <mxGeometry x="233" width="117" height="40" as="geometry">
            <mxRectangle width="117" height="40" as="alternateBounds" />
          </mxGeometry>
        </mxCell>
        <mxCell id="8-zWfNiMNheqiNsRZylx-185" style="shape=tableRow;horizontal=0;startSize=0;swimlaneHead=0;swimlaneBody=0;strokeColor=inherit;top=0;left=0;bottom=0;right=0;collapsible=0;dropTarget=0;fillColor=none;points=[[0,0.5],[1,0.5]];portConstraint=eastwest;fontSize=16;" vertex="1" parent="8-zWfNiMNheqiNsRZylx-172">
          <mxGeometry y="150" width="350" height="40" as="geometry" />
        </mxCell>
        <mxCell id="8-zWfNiMNheqiNsRZylx-186" value="3" style="shape=partialRectangle;html=1;whiteSpace=wrap;connectable=0;strokeColor=inherit;overflow=hidden;fillColor=none;top=0;left=0;bottom=0;right=0;pointerEvents=1;fontSize=16;" vertex="1" parent="8-zWfNiMNheqiNsRZylx-185">
          <mxGeometry width="117" height="40" as="geometry">
            <mxRectangle width="117" height="40" as="alternateBounds" />
          </mxGeometry>
        </mxCell>
        <mxCell id="8-zWfNiMNheqiNsRZylx-187" value="2" style="shape=partialRectangle;html=1;whiteSpace=wrap;connectable=0;strokeColor=inherit;overflow=hidden;fillColor=none;top=0;left=0;bottom=0;right=0;pointerEvents=1;fontSize=16;" vertex="1" parent="8-zWfNiMNheqiNsRZylx-185">
          <mxGeometry x="117" width="116" height="40" as="geometry">
            <mxRectangle width="116" height="40" as="alternateBounds" />
          </mxGeometry>
        </mxCell>
        <mxCell id="8-zWfNiMNheqiNsRZylx-188" value="Marcos@email" style="shape=partialRectangle;html=1;whiteSpace=wrap;connectable=0;strokeColor=inherit;overflow=hidden;fillColor=none;top=0;left=0;bottom=0;right=0;pointerEvents=1;fontSize=16;" vertex="1" parent="8-zWfNiMNheqiNsRZylx-185">
          <mxGeometry x="233" width="117" height="40" as="geometry">
            <mxRectangle width="117" height="40" as="alternateBounds" />
          </mxGeometry>
        </mxCell>
        <mxCell id="8-zWfNiMNheqiNsRZylx-189" value="CNH" style="shape=table;startSize=30;container=1;collapsible=0;childLayout=tableLayout;strokeColor=default;fontSize=16;" vertex="1" parent="1">
          <mxGeometry x="-140" y="1620" width="350" height="190" as="geometry" />
        </mxCell>
        <mxCell id="8-zWfNiMNheqiNsRZylx-190" value="" style="shape=tableRow;horizontal=0;startSize=0;swimlaneHead=0;swimlaneBody=0;strokeColor=inherit;top=0;left=0;bottom=0;right=0;collapsible=0;dropTarget=0;fillColor=none;points=[[0,0.5],[1,0.5]];portConstraint=eastwest;fontSize=16;" vertex="1" parent="8-zWfNiMNheqiNsRZylx-189">
          <mxGeometry y="30" width="350" height="40" as="geometry" />
        </mxCell>
        <mxCell id="8-zWfNiMNheqiNsRZylx-191" value="IdCnh" style="shape=partialRectangle;html=1;whiteSpace=wrap;connectable=0;strokeColor=inherit;overflow=hidden;fillColor=none;top=0;left=0;bottom=0;right=0;pointerEvents=1;fontSize=16;" vertex="1" parent="8-zWfNiMNheqiNsRZylx-190">
          <mxGeometry width="117" height="40" as="geometry">
            <mxRectangle width="117" height="40" as="alternateBounds" />
          </mxGeometry>
        </mxCell>
        <mxCell id="8-zWfNiMNheqiNsRZylx-192" value="IdPessoa" style="shape=partialRectangle;html=1;whiteSpace=wrap;connectable=0;strokeColor=inherit;overflow=hidden;fillColor=none;top=0;left=0;bottom=0;right=0;pointerEvents=1;fontSize=16;" vertex="1" parent="8-zWfNiMNheqiNsRZylx-190">
          <mxGeometry x="117" width="116" height="40" as="geometry">
            <mxRectangle width="116" height="40" as="alternateBounds" />
          </mxGeometry>
        </mxCell>
        <mxCell id="8-zWfNiMNheqiNsRZylx-193" value="NumCnh" style="shape=partialRectangle;html=1;whiteSpace=wrap;connectable=0;strokeColor=inherit;overflow=hidden;fillColor=none;top=0;left=0;bottom=0;right=0;pointerEvents=1;fontSize=16;" vertex="1" parent="8-zWfNiMNheqiNsRZylx-190">
          <mxGeometry x="233" width="117" height="40" as="geometry">
            <mxRectangle width="117" height="40" as="alternateBounds" />
          </mxGeometry>
        </mxCell>
        <mxCell id="8-zWfNiMNheqiNsRZylx-194" value="" style="shape=tableRow;horizontal=0;startSize=0;swimlaneHead=0;swimlaneBody=0;strokeColor=inherit;top=0;left=0;bottom=0;right=0;collapsible=0;dropTarget=0;fillColor=none;points=[[0,0.5],[1,0.5]];portConstraint=eastwest;fontSize=16;" vertex="1" parent="8-zWfNiMNheqiNsRZylx-189">
          <mxGeometry y="70" width="350" height="40" as="geometry" />
        </mxCell>
        <mxCell id="8-zWfNiMNheqiNsRZylx-195" value="1" style="shape=partialRectangle;html=1;whiteSpace=wrap;connectable=0;strokeColor=inherit;overflow=hidden;fillColor=none;top=0;left=0;bottom=0;right=0;pointerEvents=1;fontSize=16;" vertex="1" parent="8-zWfNiMNheqiNsRZylx-194">
          <mxGeometry width="117" height="40" as="geometry">
            <mxRectangle width="117" height="40" as="alternateBounds" />
          </mxGeometry>
        </mxCell>
        <mxCell id="8-zWfNiMNheqiNsRZylx-196" value="1" style="shape=partialRectangle;html=1;whiteSpace=wrap;connectable=0;strokeColor=inherit;overflow=hidden;fillColor=none;top=0;left=0;bottom=0;right=0;pointerEvents=1;fontSize=16;" vertex="1" parent="8-zWfNiMNheqiNsRZylx-194">
          <mxGeometry x="117" width="116" height="40" as="geometry">
            <mxRectangle width="116" height="40" as="alternateBounds" />
          </mxGeometry>
        </mxCell>
        <mxCell id="8-zWfNiMNheqiNsRZylx-197" value="23232323" style="shape=partialRectangle;html=1;whiteSpace=wrap;connectable=0;strokeColor=inherit;overflow=hidden;fillColor=none;top=0;left=0;bottom=0;right=0;pointerEvents=1;fontSize=16;" vertex="1" parent="8-zWfNiMNheqiNsRZylx-194">
          <mxGeometry x="233" width="117" height="40" as="geometry">
            <mxRectangle width="117" height="40" as="alternateBounds" />
          </mxGeometry>
        </mxCell>
        <mxCell id="8-zWfNiMNheqiNsRZylx-198" value="" style="shape=tableRow;horizontal=0;startSize=0;swimlaneHead=0;swimlaneBody=0;strokeColor=inherit;top=0;left=0;bottom=0;right=0;collapsible=0;dropTarget=0;fillColor=none;points=[[0,0.5],[1,0.5]];portConstraint=eastwest;fontSize=16;" vertex="1" parent="8-zWfNiMNheqiNsRZylx-189">
          <mxGeometry y="110" width="350" height="40" as="geometry" />
        </mxCell>
        <mxCell id="8-zWfNiMNheqiNsRZylx-199" value="2" style="shape=partialRectangle;html=1;whiteSpace=wrap;connectable=0;strokeColor=inherit;overflow=hidden;fillColor=none;top=0;left=0;bottom=0;right=0;pointerEvents=1;fontSize=16;" vertex="1" parent="8-zWfNiMNheqiNsRZylx-198">
          <mxGeometry width="117" height="40" as="geometry">
            <mxRectangle width="117" height="40" as="alternateBounds" />
          </mxGeometry>
        </mxCell>
        <mxCell id="8-zWfNiMNheqiNsRZylx-200" value="3" style="shape=partialRectangle;html=1;whiteSpace=wrap;connectable=0;strokeColor=inherit;overflow=hidden;fillColor=none;top=0;left=0;bottom=0;right=0;pointerEvents=1;fontSize=16;" vertex="1" parent="8-zWfNiMNheqiNsRZylx-198">
          <mxGeometry x="117" width="116" height="40" as="geometry">
            <mxRectangle width="116" height="40" as="alternateBounds" />
          </mxGeometry>
        </mxCell>
        <mxCell id="8-zWfNiMNheqiNsRZylx-201" value="25252525" style="shape=partialRectangle;html=1;whiteSpace=wrap;connectable=0;strokeColor=inherit;overflow=hidden;fillColor=none;top=0;left=0;bottom=0;right=0;pointerEvents=1;fontSize=16;" vertex="1" parent="8-zWfNiMNheqiNsRZylx-198">
          <mxGeometry x="233" width="117" height="40" as="geometry">
            <mxRectangle width="117" height="40" as="alternateBounds" />
          </mxGeometry>
        </mxCell>
        <mxCell id="8-zWfNiMNheqiNsRZylx-202" style="shape=tableRow;horizontal=0;startSize=0;swimlaneHead=0;swimlaneBody=0;strokeColor=inherit;top=0;left=0;bottom=0;right=0;collapsible=0;dropTarget=0;fillColor=none;points=[[0,0.5],[1,0.5]];portConstraint=eastwest;fontSize=16;" vertex="1" parent="8-zWfNiMNheqiNsRZylx-189">
          <mxGeometry y="150" width="350" height="40" as="geometry" />
        </mxCell>
        <mxCell id="8-zWfNiMNheqiNsRZylx-203" value="3" style="shape=partialRectangle;html=1;whiteSpace=wrap;connectable=0;strokeColor=inherit;overflow=hidden;fillColor=none;top=0;left=0;bottom=0;right=0;pointerEvents=1;fontSize=16;" vertex="1" parent="8-zWfNiMNheqiNsRZylx-202">
          <mxGeometry width="117" height="40" as="geometry">
            <mxRectangle width="117" height="40" as="alternateBounds" />
          </mxGeometry>
        </mxCell>
        <mxCell id="8-zWfNiMNheqiNsRZylx-204" value="2" style="shape=partialRectangle;html=1;whiteSpace=wrap;connectable=0;strokeColor=inherit;overflow=hidden;fillColor=none;top=0;left=0;bottom=0;right=0;pointerEvents=1;fontSize=16;" vertex="1" parent="8-zWfNiMNheqiNsRZylx-202">
          <mxGeometry x="117" width="116" height="40" as="geometry">
            <mxRectangle width="116" height="40" as="alternateBounds" />
          </mxGeometry>
        </mxCell>
        <mxCell id="8-zWfNiMNheqiNsRZylx-205" value="89898989" style="shape=partialRectangle;html=1;whiteSpace=wrap;connectable=0;strokeColor=inherit;overflow=hidden;fillColor=none;top=0;left=0;bottom=0;right=0;pointerEvents=1;fontSize=16;" vertex="1" parent="8-zWfNiMNheqiNsRZylx-202">
          <mxGeometry x="233" width="117" height="40" as="geometry">
            <mxRectangle width="117" height="40" as="alternateBounds" />
          </mxGeometry>
        </mxCell>
      </root>
    </mxGraphModel>
  </diagram>
</mxfile>
